<?xml version="1.0" standalone="no"?>
<!DOCTYPE svg PUBLIC "-//W3C//DTD SVG 1.1//EN" "http://www.w3.org/Graphics/SVG/1.1/DTD/svg11.dtd" >
<svg>
<metadata>
Created by FontForge 20110222 at Sat Oct 18 03:00:01 2014
 By deploy user
(c) copyright by Fontbit 2000
</metadata>
<defs>
<font id="TypographEngHeb-Bold" horiz-adv-x="938" >
  <font-face 
    font-family="TypographEngHeb Bold"
    font-weight="700"
    font-stretch="normal"
    units-per-em="2048"
    panose-1="0 0 0 0 0 0 0 0 0 0"
    ascent="1505"
    descent="-543"
    x-height="1028"
    cap-height="1402"
    bbox="-56 -510 2067 1520"
    underline-thickness="150"
    underline-position="-142"
    unicode-range="U+0020-2421"
  />
<missing-glyph horiz-adv-x="1024" 
d="M128 0v1505h768v-1505h-768zM256 128h512v1249h-512v-1249z" />
    <glyph glyph-name=".notdef" horiz-adv-x="1024" 
d="M128 0v1505h768v-1505h-768zM256 128h512v1249h-512v-1249z" />
    <glyph glyph-name=".null" horiz-adv-x="0" 
 />
    <glyph glyph-name="nonmarkingreturn" horiz-adv-x="453" 
 />
    <glyph glyph-name="space" unicode=" " horiz-adv-x="453" 
 />
    <glyph glyph-name="exclam" unicode="!" horiz-adv-x="502" 
d="M381 1012l-59 -717h-160l-60 727q-6 75 31 123.5t111 48.5t111 -56q32 -50 26 -126zM360 0h-241v178h241v-178z" />
    <glyph glyph-name="quotedbl" unicode="&#x22;" horiz-adv-x="741" 
d="M705 1095q-41 -97 -124 -205q-77 -100 -133 -138q-62 28 -91 84q113 158 168 396q116 -53 180 -137zM399 1095q-37 -86 -109 -187q-79 -110 -147 -156q-62 26 -92 84q113 158 168 396q116 -53 180 -137z" />
    <glyph glyph-name="numbersign" unicode="#" horiz-adv-x="973" 
d="M909 850q0 -55 -4 -98l-18 -66h-139l-27 -162h143q0 -73 -24 -166h-146l-28 -174q-43 -4 -80 -4q-47 0 -107 4l29 174h-143l-27 -174q-43 -4 -80 -4q-47 0 -106 4l26 174h-139q2 64 22 166h146l26 162h-149q2 61 22 164h156l29 174q63 8 92 8q41 0 94 -8l-28 -174h143
l26 174q63 8 93 8q41 0 94 -8l-27 -174h131zM559 686h-141l-27 -162h141z" />
    <glyph glyph-name="dollar" unicode="$" horiz-adv-x="1001" 
d="M883 784q-47 -46 -187 -59q-30 115 -114 131l2 -295q111 -40 182 -107q86 -83 86 -186q0 -216 -270 -268v-104h-164v100q-228 52 -299 250q46 46 186 59q17 -64 113 -133l-2 297q-289 104 -289 295q0 116 91 188q76 62 200 80v98h164l2 -98q228 -55 299 -248zM418 631
v233h-2q-37 -5 -59.5 -37t-22.5 -70q0 -83 84 -126zM660 274q0 83 -80 129l2 -237h3q35 0 57 38q18 33 18 70z" />
    <glyph glyph-name="percent" unicode="%" horiz-adv-x="1266" 
d="M1174 230q0 -105 -64 -176q-67 -73 -171 -73q-105 0 -171 73q-64 70 -64 176v52q0 105 65 172.5t170 67.5t170 -67.5t65 -172.5v-52zM1063 1028l-655 -1028h-209l659 1028h205zM562 756q0 -106 -65 -177t-170 -71t-170 71t-65 177v52q0 106 65 173.5t170 67.5t170 -67.5
t65 -173.5v-52zM994 206v93q0 102 -55 102t-55 -123v-72q0 -102 55 -102t55 102zM382 733v92q0 103 -55 103q-28 0 -44 -50q-11 -37 -11 -73v-72q0 -103 55 -103t55 103z" />
    <glyph glyph-name="ampersand" unicode="&#x26;" horiz-adv-x="1421" 
d="M1309 334q0 -163 -106 -252q-99 -82 -265 -82h-365q-103 0 -112 106l-41 472h223l43 -422h211q186 0 186 182v545h226v-549zM973 324h-219v256q0 62 -33 102q-36 43 -96 43h-287v-727h-225v772q0 111 110 111h443q144 0 225.5 -76t81.5 -219v-262z" />
    <glyph glyph-name="quotesingle" unicode="'" horiz-adv-x="430" 
d="M399 1095q-37 -86 -109 -187q-79 -110 -147 -156q-62 26 -92 84q113 158 168 396q116 -53 180 -137z" />
    <glyph glyph-name="parenleft" unicode="(" horiz-adv-x="494" 
d="M455 -96h-213q-84 114 -134 290q-47 164 -47 318q0 143 46 311q50 183 133 299h213q-68 -130 -118 -296q-56 -186 -56 -312q0 -295 176 -610z" />
    <glyph glyph-name="parenright" unicode=")" horiz-adv-x="494" 
d="M432 514q0 -150 -44 -313q-49 -182 -134 -297h-215q178 319 178 610q0 124 -58 312q-50 165 -118 296l213 2q82 -117 131 -292q47 -166 47 -318z" />
    <glyph glyph-name="asterisk" unicode="*" horiz-adv-x="922" 
d="M773 854q-9 -24 -37 -74q-20 -35 -43 -63l-186 147l37 -229q-13 -1 -28 -1h-28q-37 1 -28 1h-2q-8 0 -24.5 -1t-24.5 -1q-14 0 -25 2l30 227l-190 -145q-6 9 -37 51q-11 30 -39 86l220 92l-220 84q13 33 37 78q18 35 39 66l190 -142l-34 230q39 5 87 5q33 0 85 -3
l-45 -232l186 142q14 -23 41 -64q11 -27 39 -80l-220 -84z" />
    <glyph glyph-name="plus" unicode="+" horiz-adv-x="860" 
d="M756 594q4 -35 4 -73q0 -47 -6 -99h-238v-238q-31 -4 -75 -4q-43 0 -97 4v238h-240q-5 42 -5 92q0 38 3 80h242v242q44 5 87 5t85 -5v-242h240z" />
    <glyph glyph-name="comma" unicode="," horiz-adv-x="410" 
d="M308 118q-37 -87 -104 -182q-75 -108 -140 -152q-69 42 -84 78q92 128 161 368q114 -55 167 -112z" />
    <glyph glyph-name="hyphen" unicode="-" horiz-adv-x="860" 
d="M762 524q0 -31 -8 -102h-650q-6 51 -6 94q0 19 4 78h654q6 -55 6 -70z" />
    <glyph glyph-name="period" unicode="." horiz-adv-x="410" 
d="M287 0h-201v199h201v-199z" />
    <glyph glyph-name="slash" unicode="/" horiz-adv-x="821" 
d="M778 1028l-532 -1028h-213l532 1028h213z" />
    <glyph glyph-name="zero" unicode="0" 
d="M877 358q0 -186 -112 -287q-108 -96 -296 -96t-296 96q-112 101 -112 287v308q0 186 112 287q108 96 296 96t296 -96q112 -101 112 -287v-308zM616 326v372q0 176 -147 176t-147 -176v-372q0 -176 147 -176t147 176z" />
    <glyph glyph-name="one" unicode="1" 
d="M707 0h-246v778q-137 -185 -314 -254q-29 111 -29 140q0 26 5 55q96 33 200 127q97 87 152 182h232v-1028z" />
    <glyph glyph-name="two" unicode="2" 
d="M874 711q0 -122 -87 -236q-74 -99 -193 -168l-225 -131h469q7 -62 7 -104q0 -19 -7 -72h-648q-47 0 -80.5 32.5t-33.5 78.5q0 81 79 137l320 228q137 98 137 218q0 86 -60 133q-55 43 -144 43q-119 0 -236 -80q-70 85 -97 149q68 53 203 84q115 26 220 26q163 0 266 -86
q110 -92 110 -252z" />
    <glyph glyph-name="three" unicode="3" 
d="M872 299q0 -156 -126 -247q-112 -81 -274 -81q-264 0 -397 102q27 65 97 150q102 -70 256 -70q75 0 125 38q55 41 55 114q0 66 -48.5 107t-115.5 41h-84q-20 50 -20 92q0 33 20 84h64q63 0 109 27q55 33 55 92q0 122 -180 122q-128 0 -236 -74q-70 85 -97 150
q134 102 377 102q163 0 267 -60q129 -73 129 -224q0 -175 -203 -225q102 -14 163 -75q64 -65 64 -165z" />
    <glyph glyph-name="four" unicode="4" 
d="M885 216q0 -11 -6 -73h-74v-143h-242v143h-448q-93 0 -93 89q0 46 27 81q277 357 373 715h211q43 0 43 -23q-2 -9 -12 -40q-49 -145 -154 -340t-199 -316h252v246q109 56 242 74v-320h74q6 -61 6 -93z" />
    <glyph glyph-name="five" unicode="5" 
d="M872 358q0 -177 -111 -283t-289 -106q-261 0 -397 104q27 65 97 150q102 -70 236 -70q92 0 151 53t59 144q0 80 -48 131t-127 51q-66 0 -117 -59q-39 -2 -73 -2q-102 0 -164 16l85 461q9 46 22 61q17 19 62 19h512q11 -54 11 -80q0 -41 -11 -96h-364l-41 -207
q60 46 167 47q139 1 233 -79q107 -91 107 -255z" />
    <glyph glyph-name="six" unicode="6" 
d="M879 338q0 -172 -121 -273q-114 -94 -289 -94q-172 0 -288 97q-124 103 -124 272v258q0 192 117 320q121 131 311 131q226 0 357 -101q-27 -64 -97 -149q-96 65 -231 65q-96 0 -157 -80q-56 -75 -50 -173q82 69 201 69q165 0 265 -87q106 -92 106 -255zM640 340
q0 75 -48 131q-51 58 -125 58t-122.5 -57t-48.5 -132t48.5 -131t122.5 -56t123.5 56t49.5 131z" />
    <glyph glyph-name="seven" unicode="7" 
d="M882 927q0 -39 -30 -71q-336 -359 -336 -856h-217q-33 0 -33 37q0 182 86 414q92 249 232 403l-504 -2q-5 52 -5 90q0 13 7 86h692q43 0 75.5 -29.5t32.5 -71.5z" />
    <glyph glyph-name="eight" unicode="8" 
d="M891 270q0 -163 -136 -242q-111 -65 -286 -65t-286 65q-136 79 -136 242q0 209 200 267q-180 47 -180 231q0 149 133 226q108 62 269 62t269 -62q133 -77 133 -226q0 -170 -180 -231q94 -18 148 -96q52 -73 52 -171zM637 739q0 65 -53 107q-49 39 -115 39t-115 -39
q-53 -42 -53 -107q0 -64 53 -107q49 -39 115 -39t115 39q53 43 53 107zM657 295q0 70 -60 116q-56 41 -128 41t-128 -41q-60 -46 -60 -116t60 -116q56 -41 128 -41t128 41q60 46 60 116z" />
    <glyph glyph-name="nine" unicode="9" 
d="M880 420q0 -192 -117 -320q-121 -131 -311 -131q-226 0 -357 100q27 65 97 150q96 -66 231 -66q95 0 156 81q57 77 51 173q-82 -69 -201 -69q-166 0 -266 87q-105 92 -105 255q0 172 122 272q113 94 288 94q173 0 289 -96q123 -103 123 -272v-258zM641 677q0 75 -47 130
q-50 57 -124 57t-123.5 -56t-49.5 -131t49.5 -132t123.5 -57t124 58q47 56 47 131z" />
    <glyph glyph-name="colon" unicode=":" horiz-adv-x="426" 
d="M303 606h-201v198h201v-198zM303 0h-201v199h201v-199z" />
    <glyph glyph-name="semicolon" unicode=";" horiz-adv-x="431" 
d="M307 606h-201v198h201v-198zM328 118q-37 -86 -103 -181q-76 -110 -140 -153q-69 41 -85 78q92 128 162 368q113 -55 166 -112z" />
    <glyph glyph-name="less" unicode="&#x3c;" horiz-adv-x="860" 
d="M786 289q-13 -60 -94 -162l-547 289q-63 33 -63 91q0 68 65 105l551 310q67 -93 86 -164l-458 -244z" />
    <glyph glyph-name="equal" unicode="=" horiz-adv-x="860" 
d="M762 688q0 -9 -8 -80h-650q-6 51 -6 72q0 39 4 98h654q6 -55 6 -90zM762 319q0 -10 -8 -81h-650q-6 51 -6 73q0 37 4 97h654q6 -56 6 -89z" />
    <glyph glyph-name="greater" unicode="&#x3e;" horiz-adv-x="860" 
d="M780 505q0 -58 -63 -91l-551 -287q-61 48 -88 162l457 225l-459 244q19 81 88 162l549 -308q67 -38 67 -107z" />
    <glyph glyph-name="question" unicode="?" horiz-adv-x="926" 
d="M862 872q0 -185 -174 -299q-72 -47 -93 -75q-38 -50 -38 -144v-59h-244v67q0 202 201 318q100 58 100 172q0 71 -42 114.5t-113 43.5q-156 0 -156 -211h-242q0 179 114 286t294 107q147 0 262 -75q131 -86 131 -226v-19zM557 0h-244v178h244v-178z" />
    <glyph glyph-name="at" unicode="@" horiz-adv-x="1886" 
d="M1844 156q-93 -285 -331 -451q-234 -163 -536 -163q-241 0 -440 111q-205 114 -318.5 320.5t-113.5 454.5q0 264 122 489q125 232 349 360.5t475 128.5q202 0 362 -79q176 -87 264 -254t88 -352q0 -169 -66 -330q-70 -173 -193 -272q-129 -104 -293 -104q-153 0 -181 121
q16 64 56 104q-246 -226 -404 -226q-85 0 -136 77q-45 67 -45 156q0 156 104 345q86 156 217 296q107 73 177 73q30 0 53 -13q140 0 202 -84l8 96l136 -24l-101 -393q-72 -280 -72 -338q0 -19 5 -29q-6 -20 -6 -33q0 -28 25 -28q17 0 45 13q20 -9 40 -9q74 0 152 121
q92 40 144 157q73 164 73 342q-33 141 -105 309q-91 134 -245 212q-150 76 -315 76q-232 -64 -392 -160q-223 -76 -264 -272q-157 -216 -157 -411q0 -35 5 -69q-8 -240 104 -408q61 -217 272 -256q140 -84 360 -112q55 -7 101 -7q231 0 395 151q211 105 256 400zM1182 773
q0 60 -32 100q-17 22 -44 22q-28 0 -66 -23q-80 8 -136 -136q-111 -13 -192 -211q-59 -145 -59 -232q19 -29 30 -95q29 24 49 24q23 0 36 -30q112 56 248 192q40 88 120 144q46 146 46 245z" />
    <glyph glyph-name="A" unicode="A" horiz-adv-x="1286" 
d="M1258 0h-291l-114 458h-421l-114 -458h-290l366 1217q59 197 249 197t249 -197zM808 640l-130 525q-7 28 -35 28t-35 -28l-130 -525h330z" />
    <glyph glyph-name="B" unicode="B" horiz-adv-x="1290" 
d="M1192 380q0 -183 -162 -289q-140 -91 -333 -91h-404q-153 0 -153 168v1067q0 167 153 167h318q180 0 314 -82q158 -97 158 -267q0 -106 -60 -186t-161 -115q129 -28 220 -115q110 -106 110 -257zM820 1017q0 108 -88 161q-73 43 -188 43h-105q-28 0 -28 -28v-377h147
q109 0 179 45q83 53 83 156zM907 400q0 113 -98 178q-85 56 -204 56h-194v-424q0 -28 28 -28h166q123 0 203 47q99 57 99 171z" />
    <glyph glyph-name="C" unicode="C" horiz-adv-x="1271" 
d="M1199 140q-156 -174 -459 -174q-321 0 -494 209q-159 194 -159 523q0 330 159 523q172 209 494 209q303 0 459 -173q-25 -71 -93 -156q-125 142 -296 142q-207 0 -328 -175q-108 -154 -108 -370q0 -215 108 -370q122 -174 328 -174q171 0 296 142q68 -85 93 -156z" />
    <glyph glyph-name="D" unicode="D" horiz-adv-x="1422" 
d="M1335 701q0 -307 -194.5 -504t-501.5 -197h-321q-178 0 -178 168v1067q0 167 178 167h321q308 0 502 -196.5t194 -504.5zM1047 701q0 219 -113 365q-124 160 -337 160h-134q-52 0 -52 -50v-950q0 -50 52 -50h134q212 0 336 160q114 147 114 365z" />
    <glyph glyph-name="E" unicode="E" horiz-adv-x="1053" 
d="M958 84q0 -48 -3 -84h-662q-153 0 -153 168v1067q0 167 153 167h662q3 -36 3 -83q0 -67 -5 -98h-514q-28 0 -28 -28v-385h387q6 -31 6 -98q0 -48 -3 -84h-390v-416q0 -28 28 -28h514q5 -31 5 -98z" />
    <glyph glyph-name="F" unicode="F" horiz-adv-x="1022" 
d="M958 1319q0 -67 -5 -98h-514q-28 0 -28 -28v-385h359q6 -31 6 -98q0 -48 -3 -84h-362v-626h-271v1235q0 167 153 167h662q3 -36 3 -83z" />
    <glyph glyph-name="G" unicode="G" horiz-adv-x="1399" 
d="M1282 112q-221 -146 -514 -146q-307 0 -496 201q-185 197 -185 506q0 305 184 527q191 230 472 230q285 0 520 -153q-9 -53 -92 -157q-161 123 -369 123q-217 0 -332 -186q-96 -155 -96 -386q0 -218 107 -361q119 -159 329 -159q100 0 201 39v389q0 28 -28 28h-235
q-5 31 -5 98q0 48 2 84h383q154 0 154 -168v-509z" />
    <glyph glyph-name="H" unicode="H" horiz-adv-x="1457" 
d="M1317 0h-271v626h-635v-626h-271v1402h271v-594h635v594h271v-1402z" />
    <glyph glyph-name="I" unicode="I" horiz-adv-x="553" 
d="M413 0h-273v1402h273v-1402z" />
    <glyph glyph-name="J" unicode="J" horiz-adv-x="890" 
d="M751 1404v-1058q0 -179 -102 -285t-281 -106q-236 0 -340 119q28 74 98 137q106 -77 175 -77q77 0 123 55q44 51 44 129v1086h283z" />
    <glyph glyph-name="K" unicode="K" horiz-adv-x="1284" 
d="M1242 0h-333q-77 75 -185 288q-100 198 -155 366q-25 -24 -158 -84v-570h-271v1402h271v-622q260 169 465 622h282q-31 -134 -177 -340q-138 -195 -264 -298q49 -111 220 -367q185 -276 305 -397z" />
    <glyph glyph-name="L" unicode="L" horiz-adv-x="930" 
d="M902 84q0 -48 -2 -84h-607q-153 0 -153 168v1234h271v-1192q0 -28 28 -28h458q5 -31 5 -98z" />
    <glyph glyph-name="M" unicode="M" horiz-adv-x="1721" 
d="M655 436l-189 717q-10 37 -39 37q-24 0 -24 -37v-1153h-263v1158q0 111 66 178.5t177 67.5q117 0 179 -41q69 -45 97 -154l183 -708q5 -19 19 -19t19 19l183 708q28 109 97 154q62 41 179 41q111 0 177 -67.5t66 -178.5v-1158h-264v1153q0 37 -23 37q-30 0 -40 -37
l-188 -717q-44 -169 -206 -169q-161 0 -206 169z" />
    <glyph glyph-name="N" unicode="N" horiz-adv-x="1509" 
d="M1370 214q0 -100 -66 -158q-62 -56 -164 -56q-106 0 -164 33q-65 36 -104 130l-417 1002q-12 28 -26 28q-18 0 -18 -28v-1165h-271v1189q0 100 56 157.5t156 57.5q111 0 173 -32q72 -38 112 -133l417 -1002q12 -28 26 -28q19 0 19 28v1165h271v-1188z" />
    <glyph glyph-name="O" unicode="O" horiz-adv-x="1564" 
d="M1478 704q0 -314 -189 -526q-196 -220 -507 -220q-314 0 -510 225q-185 212 -185 521q0 308 185 519q196 224 510 224q313 0 510 -224q186 -212 186 -519zM1193 704q0 207 -92 363q-114 193 -319 193t-318 -193q-92 -157 -92 -363t92 -364q113 -195 318 -195t319 195
q92 158 92 364z" />
    <glyph glyph-name="P" unicode="P" horiz-adv-x="1170" 
d="M1111 1009q0 -184 -156 -290q-137 -93 -330 -93h-214v-626h-271v1235q0 167 153 167h346q198 0 327 -95q145 -106 145 -298zM848 1009q0 108 -88 164q-75 48 -188 48h-133q-28 0 -28 -28v-385h175q109 0 179 45q83 53 83 156z" />
    <glyph glyph-name="Q" unicode="Q" horiz-adv-x="1630" 
d="M1599 0h-304q-27 28 -94 113q-145 -155 -419 -155q-314 0 -510 225q-185 212 -185 521q0 308 185 519q196 224 510 224q313 0 510 -224q186 -212 186 -519q0 -103 -40 -226.5t-100 -208.5q54 -58 261 -269zM1193 704q0 207 -92 363q-114 193 -319 193t-318 -193
q-92 -157 -92 -363t92 -364q113 -195 318 -195q177 0 287 147q-138 201 -198 334h179q51 -77 109 -151q34 113 34 229z" />
    <glyph glyph-name="R" unicode="R" horiz-adv-x="1256" 
d="M1214 0h-333q-63 65 -174 265q-118 213 -166 361h-130v-626h-271v1235q0 167 153 167h346q199 0 327 -90q145 -104 145 -295q0 -152 -109 -253q-97 -90 -254 -121q46 -105 191 -307q150 -209 275 -336zM848 1009q0 108 -88 164q-75 48 -188 48h-133q-28 0 -28 -28v-385
h175q109 0 179 45q83 53 83 156z" />
    <glyph glyph-name="S" unicode="S" horiz-adv-x="1185" 
d="M1090 350q0 -201 -163 -303q-136 -85 -349 -85q-297 0 -483 157q6 29 38 80q30 48 54 71q177 -125 313 -125q113 0 193 45q98 55 98 160q0 205 -284 299q-394 131 -394 415q0 178 140 277q124 87 309 87q144 0 245 -36q62 -22 183 -94q-6 -29 -37 -78.5t-55 -72.5
q-138 98 -285 98q-210 0 -210 -183q0 -159 265 -252q422 -149 422 -460z" />
    <glyph glyph-name="T" unicode="T" horiz-adv-x="1107" 
d="M1079 1315q0 -64 -6 -95h-366v-1220h-282v1220h-391q-6 31 -6 95q0 53 3 90h1045q3 -37 3 -90z" />
    <glyph glyph-name="U" unicode="U" horiz-adv-x="1528" 
d="M1411 676q0 -315 -164 -507q-174 -205 -484 -205q-314 0 -490 203q-156 180 -156 453v782h274v-737q0 -207 78 -343q98 -171 294 -171q194 0 290 172q76 137 76 342v737h282v-726z" />
    <glyph glyph-name="V" unicode="V" horiz-adv-x="1286" 
d="M1258 1402l-366 -1244q-50 -169 -249 -169t-249 169l-366 1244h290l290 -1165q7 -27 35 -27t35 27l289 1165h291z" />
    <glyph glyph-name="W" unicode="W" horiz-adv-x="1917" 
d="M1847 1403l-237 -1158q-25 -121 -60 -179q-55 -88 -155 -88q-114 0 -170.5 50.5t-77.5 165.5l-170 948q-3 19 -19 19q-15 0 -18 -19l-170 -948q-21 -115 -77 -165.5t-170 -50.5q-161 0 -216 267l-237 1158h279l190 -1153q3 -18 19 -18t19 18l176 957q36 197 206 197
t206 -197l175 -957q3 -16 18 -16q17 0 20 17l190 1152h279z" />
    <glyph glyph-name="X" unicode="X" horiz-adv-x="1350" 
d="M1322 0h-302l-345 509l-345 -509h-302l469 672q16 23 16 49q0 27 -16 51l-428 630h274l332 -475l331 475h274l-423 -624q-19 -28 -19 -58q0 -27 15 -48z" />
    <glyph glyph-name="Y" unicode="Y" horiz-adv-x="1174" 
d="M1146 1402l-310 -658q-42 -89 -112 -140v-604h-274v605q-71 52 -112 139l-310 658h290l234 -578q11 -27 35 -27t35 27l233 578h291z" />
    <glyph glyph-name="Z" unicode="Z" horiz-adv-x="1102" 
d="M998 84q0 -48 -3 -84h-793q-129 0 -129 119q0 54 31 105l585 954q9 15 9 25q0 18 -30 18h-570q-6 31 -6 98q0 47 3 83h794q127 0 127 -124q0 -51 -30 -99l-593 -954q-10 -16 -10 -25q0 -18 31 -18h578q6 -31 6 -98z" />
    <glyph glyph-name="bracketleft" unicode="[" horiz-adv-x="696" 
d="M655 1448q0 -29 -12 -90h-22q-259 0 -259 -246v-1120q0 -242 259 -242h26l6 -90q0 -27 -6 -72h-65q-220 0 -347 111q-133 117 -133 334v1044q0 217 134 333q126 110 346 110h61q12 -45 12 -72z" />
    <glyph glyph-name="backslash" unicode="\" horiz-adv-x="565" 
d="M556 -4h-176l-380 1198l184 2z" />
    <glyph glyph-name="bracketright" unicode="]" horiz-adv-x="696" 
d="M594 33q0 -218 -133 -334q-126 -111 -346 -111h-66q-6 45 -6 72q0 7 6 90h27q258 0 258 242v1120q0 246 -258 246h-23q-12 61 -12 90q0 27 12 72h62q221 0 346 -110q133 -115 133 -333v-1044z" />
    <glyph glyph-name="asciicircum" unicode="^" horiz-adv-x="788" 
d="M768 436h-160l-208 508l-232 -508h-141l317 701h107z" />
    <glyph glyph-name="underscore" unicode="_" horiz-adv-x="1032" 
d="M1042 -258h-1042l-8 130h1044z" />
    <glyph glyph-name="grave" unicode="`" horiz-adv-x="682" 
d="M447 1045l-55 -9l-274 354h223z" />
    <glyph glyph-name="a" unicode="a" horiz-adv-x="1178" 
d="M1081 0h-275q-36 78 -36 163q-91 -133 -207 -177q-69 -26 -198 -26q-110 0 -187 69q-80 71 -80 180q0 310 463 441q182 51 178 121q-6 119 -219 119q-173 0 -308 -103q-52 65 -67 151q192 126 459 126q198 0 308 -94q117 -100 117 -297v-384q0 -150 52 -289zM770 443v163
q-140 -83 -227 -112q-179 -60 -179 -238q0 -127 121 -127q124 0 206 96q79 92 79 218z" />
    <glyph glyph-name="b" unicode="b" horiz-adv-x="1251" 
d="M1167 513q0 -220 -125 -378q-135 -170 -350 -170q-193 0 -285 174q0 -65 -27 -139h-282q41 93 41 284v1120h269v-517q111 145 284 145q195 0 329 -133q146 -144 146 -386zM893 513q0 137 -54 233q-67 119 -193 119t-193 -119q-54 -96 -54 -233q0 -138 54 -245
q68 -135 193 -135t193 135q54 107 54 245z" />
    <glyph glyph-name="c" unicode="c" horiz-adv-x="1089" 
d="M1005 89q-152 -129 -409 -129q-235 0 -377 161q-135 153 -135 392t135 392q142 161 377 161q257 0 409 -129q-17 -55 -67 -151q-141 112 -277 112q-150 0 -232 -122q-71 -105 -71 -263q0 -159 70 -263q82 -122 233 -122q136 0 277 111q28 -34 67 -150z" />
    <glyph glyph-name="d" unicode="d" horiz-adv-x="1251" 
d="M1153 0h-282q-27 74 -27 139q-92 -174 -285 -174q-215 0 -350 170q-125 158 -125 378q0 242 146 386q134 133 329 133q173 0 284 -145v517h269v-1120q0 -191 41 -284zM852 513q0 137 -54 233q-67 119 -193 119q-127 0 -194 -118q-53 -96 -53 -234t54 -245
q68 -135 193 -135t193 135q54 107 54 245z" />
    <glyph glyph-name="e" unicode="e" horiz-adv-x="1152" 
d="M1054 761q0 -157 -219 -274q-181 -97 -449 -141q73 -218 269 -218q146 0 283 111q28 -34 67 -150q-158 -129 -382 -129q-250 0 -395 152q-144 149 -144 400q0 253 144 403.5t396 150.5q164 0 283 -67q147 -83 147 -238zM764 765q0 61 -51 99q-46 34 -109 34
q-116 0 -186 -119q-60 -101 -60 -225q0 -39 6 -75q171 35 257 80q143 76 143 206z" />
    <glyph glyph-name="f" unicode="f" horiz-adv-x="717" 
d="M745 1328q-30 -66 -89 -121q-16 13 -50 37t-86 24q-56 0 -87 -53q-25 -44 -25 -104v-257h211q1 -63 -41 -173h-170v-681h-268v1048q0 168 70 271q82 119 243 119q185 0 292 -110z" />
    <glyph glyph-name="g" unicode="g" horiz-adv-x="1251" 
d="M1153 1028q-41 -93 -41 -284v-727q0 -223 -170 -346q-138 -100 -318 -100q-234 0 -425 125q14 86 66 151q135 -103 308 -103q117 0 193.5 71.5t76.5 187.5v139q-86 -146 -284 -146q-195 0 -329 133q-146 145 -146 387q0 221 125 378q135 169 350 169q200 0 285 -159
q0 50 27 124h282zM852 516q0 137 -54 245q-69 134 -193 134t-193 -134q-54 -108 -54 -245q0 -138 54 -234q66 -118 193 -118q122 0 190 121q57 100 57 231z" />
    <glyph glyph-name="h" unicode="h" horiz-adv-x="1224" 
d="M1099 0h-267v652q0 238 -186 238q-146 0 -237 -160v-730h-269v1404h269v-505q124 159 329 159q173 0 270 -119q91 -110 91 -287v-652z" />
    <glyph glyph-name="i" unicode="i" horiz-adv-x="568" 
d="M429 1304q0 -60 -42.5 -102.5t-102.5 -42.5t-102 42.5t-42 102.5t42 102t102 42t102.5 -42t42.5 -102zM423 0h-269v1028h269v-1028z" />
    <glyph glyph-name="j" unicode="j" horiz-adv-x="623" 
d="M483 1304q0 -60 -42 -102.5t-102 -42.5t-102.5 42.5t-42.5 102.5t42.5 102t102.5 42t102 -42t42 -102zM471 -20q0 -156 -82 -265q-94 -125 -261 -125q-106 0 -184 77q42 93 78 126q32 -32 67 -32q56 0 86 53q25 43 25 103v1111h271v-1048z" />
    <glyph glyph-name="k" unicode="k" horiz-adv-x="1101" 
d="M1059 0h-314q-163 283 -229 489q-40 -38 -111 -70v-419h-265v1404h265v-804q189 105 327 428h288q-102 -229 -334 -429q35 -82 144 -259q120 -195 229 -340z" />
    <glyph glyph-name="l" unicode="l" horiz-adv-x="548" 
d="M140 0v1404h268v-1404h-268z" />
    <glyph glyph-name="m" unicode="m" horiz-adv-x="1734" 
d="M1595 0h-267v652q0 238 -159 238q-72 0 -118 -59q-43 -55 -43 -129v-702h-277v672q0 218 -169 218q-69 0 -113 -61q-40 -56 -40 -127v-702h-269v1028h269v-115q86 145 262 145q198 0 287 -178q60 90 112 126q75 52 192 52q163 0 251 -110q82 -101 82 -268v-680z" />
    <glyph glyph-name="n" unicode="n" horiz-adv-x="1238" 
d="M1099 0h-267v652q0 238 -186 238q-175 0 -237 -160v-730h-269v1028h269v-129q102 159 357 159q333 0 333 -378v-680z" />
    <glyph glyph-name="o" unicode="o" horiz-adv-x="1281" 
d="M1195 512q0 -256 -157 -407q-152 -147 -397 -147q-252 0 -403 151t-151 403q0 250 152 402t402 152q249 0 401.5 -152.5t152.5 -401.5zM921 513q0 153 -62 258q-75 127 -218 127q-144 0 -219 -127q-62 -104 -62 -258q0 -153 62 -258q76 -126 219 -126t218 127
q62 104 62 257z" />
    <glyph glyph-name="p" unicode="p" horiz-adv-x="1251" 
d="M1167 543q0 -263 -155 -413q-134 -129 -320 -129q-173 0 -284 146v-522h-269v1119q0 191 -41 284h282q27 -81 27 -141q93 168 313 168q213 0 335 -152q112 -141 112 -360zM893 510q0 374 -247 374q-132 0 -197 -132q-50 -101 -50 -248q0 -137 54 -231q66 -115 193 -115
t193 119q54 96 54 233z" />
    <glyph glyph-name="q" unicode="q" horiz-adv-x="1251" 
d="M1153 1028q-41 -93 -41 -284v-1119h-269v522q-111 -146 -284 -146q-186 0 -320 129q-155 150 -155 413q0 219 112 360q122 152 335 152q220 0 313 -168q0 60 27 141h282zM852 504q0 147 -50 248q-65 132 -197 132q-247 0 -247 -374q0 -137 54 -233q66 -119 193 -119
t193 115q54 94 54 231z" />
    <glyph glyph-name="r" unicode="r" horiz-adv-x="876" 
d="M408 0h-269v744q0 191 -41 284h282q27 -74 27 -138q92 173 285 173q80 0 156 -29q-9 -98 -44 -180q-47 41 -158 41q-123 0 -188 -136q-50 -105 -50 -243v-516z" />
    <glyph glyph-name="s" unicode="s" horiz-adv-x="1034" 
d="M90 768q0 145 135 228q114 70 268 70q279 0 428 -131q-13 -77 -67 -151q-135 115 -302 115q-169 0 -169 -131q0 -116 171 -172q394 -128 394 -332q0 -155 -139 -238q-115 -68 -281 -68q-307 0 -455 131q13 78 66 152q132 -115 331 -115q185 0 185 137q0 129 -200 193
q-365 118 -365 312z" />
    <glyph glyph-name="t" unicode="t" horiz-adv-x="773" 
d="M745 76q-107 -110 -292 -110q-162 0 -243 119q-70 102 -70 271v936q105 86 268 112v-376h226q-13 -122 -54 -173h-172v-563q0 -60 25 -103q31 -53 87 -53q49 0 87 23q24 19 49 37q59 -54 89 -120z" />
    <glyph glyph-name="u" unicode="u" horiz-adv-x="1238" 
d="M1099 0h-269v129q-93 -159 -330 -159q-172 0 -270 119q-90 110 -90 287v652h267v-652q0 -238 186 -238q146 0 237 161v729h269v-1028z" />
    <glyph glyph-name="v" unicode="v" horiz-adv-x="1075" 
d="M1047 1028l-233 -814q-29 -101 -100 -162q-75 -63 -177 -63q-213 0 -277 225l-232 814h290l184 -791q13 -57 35 -57q21 0 34 57l185 791h291z" />
    <glyph glyph-name="w" unicode="w" horiz-adv-x="1722" 
d="M1694 1028l-224 -811q-61 -220 -246 -220t-220 173l-125 626q-4 18 -19 18q-14 0 -18 -18l-125 -635q-16 -79 -81 -123q-60 -41 -144 -41q-183 0 -243 220l-221 811h279l190 -806q4 -18 20 -18q15 0 18 18l120 638q32 169 206 169t206 -169l119 -638q3 -16 18 -16
q17 0 21 18l189 804h280z" />
    <glyph glyph-name="x" unicode="x" horiz-adv-x="1174" 
d="M1123 0h-296l-245 349l-230 -349h-307l367 486q26 35 -3 76l-335 466h282l224 -335l218 335h302l-347 -470q-27 -37 0 -72z" />
    <glyph glyph-name="y" unicode="y" horiz-adv-x="1006" 
d="M978 1028l-367 -1166q-86 -272 -344 -272q-114 0 -192 77q43 93 79 126q45 -32 94 -32q75 0 101 88l37 126l-358 1053h285l167 -699q6 -27 15 -27q10 0 18 30l175 696h290z" />
    <glyph glyph-name="z" unicode="z" horiz-adv-x="1109" 
d="M987 84q0 -48 -3 -84h-737q-59 0 -97 33t-38 91q0 57 37 100l501 588q10 12 10 22q0 21 -31 21h-486q-5 31 -5 90q0 47 2 83h738q58 0 95.5 -35.5t37.5 -92.5q0 -54 -35 -95l-510 -591q-10 -12 -10 -22q0 -22 31 -22h495q5 -30 5 -86z" />
    <glyph glyph-name="braceleft" unicode="{" horiz-adv-x="680" 
d="M639 1448q0 -29 -12 -90h-23q-101 0 -160 -53q-61 -56 -61 -156q0 -23 3 -45l42 -303q2 -14 2 -18q0 -60 -55 -134q-48 -64 -94 -88q53 -26 101 -108t48 -142q0 -4 -2 -18l-42 -294q-4 -28 -4 -45q0 -99 63 -153q59 -51 159 -51h27l6 -90q0 -27 -6 -72h-66
q-178 0 -295 77q-137 89 -137 258q0 53 14 110l62 252q5 20 5 40q0 66 -38 134.5t-94 101.5q56 31 94 99.5t38 133.5q0 20 -5 40l-62 243q-14 55 -14 112q0 167 138 256q117 75 294 75h62q12 -45 12 -72z" />
    <glyph glyph-name="bar" unicode="|" horiz-adv-x="258" 
d="M195 0h-129v1194h129v-1194z" />
    <glyph glyph-name="braceright" unicode="}" horiz-adv-x="680" 
d="M598 561q-56 -33 -94 -101.5t-38 -134.5q0 -19 5 -40l61 -252q15 -62 15 -110q0 -169 -137 -258q-117 -77 -295 -77h-66q-6 45 -6 72q0 7 6 90h27q106 0 165 56q56 54 56 148q0 24 -3 45l-42 294q-2 14 -2 18q0 60 48 142t101 108q-46 24 -94 88q-55 74 -55 134q0 4 2 18
l42 303q3 22 3 45q0 100 -61 156q-58 53 -160 53h-23q-12 61 -12 90q0 27 12 72h62q177 0 294 -75q138 -89 138 -256q0 -52 -15 -112l-61 -243q-5 -20 -5 -40q0 -65 38 -133.5t94 -99.5z" />
    <glyph glyph-name="asciitilde" unicode="~" horiz-adv-x="1112" 
d="M1081 645q-135 -237 -311 -237q-68 0 -134 29l-104 46q-121 70 -202 70q-70 0 -127 -51q-39 -35 -107 -131l-76 100q123 217 305 217q74 0 240 -76q171 -58 209 -58q116 0 209 155z" />
    <glyph glyph-name="exclamdown" unicode="&#xa1;" horiz-adv-x="623" 
d="M340 822l-115 -119l-119 121l117 119zM328 107q-3 -139 -45 -274l-177 211q78 220 78 430v86q151 -168 144 -453z" />
    <glyph glyph-name="cent" unicode="&#xa2;" horiz-adv-x="1024" 
d="M900 349q-47 -188 -163 -292q-90 -81 -221 -81q-81 0 -162 35l-142 -390h-70l155 427q-81 76 -117 154q-51 110 -51 250q0 253 157 390q121 105 273 105q20 0 61 -4l140 383h72l-145 -402q101 -45 138 -87q48 -54 48 -115q0 -85 -94 -85q-55 0 -86 38q-18 22 -26 82
q-4 31 -17 65l-228 -631q87 -61 163 -61q129 0 202 86q32 38 83 146zM593 865q-28 12 -60 12q-102 0 -162 -74q-82 -100 -82 -268q0 -137 81 -285z" />
    <glyph glyph-name="sterling" unicode="&#xa3;" horiz-adv-x="907" 
d="M799 176l-62 -176h-671l69 176h60q20 113 20 244q0 20 -1 60.5t-1 60.5h-109l56 147h47q-3 25 -2 70q3 170 116 292q117 126 285 128q107 1 189 -66l-95 -147q-106 67 -196 67q-142 0 -142 -160q0 -32 9 -182h168l-58 -147h-106q-8 -247 -94 -367h518z" />
    <glyph glyph-name="currency" unicode="&#xa4;" horiz-adv-x="1024" 
d="M995 253l-58 -55l-143 143q-134 -103 -270 -103q-77 0 -158 26q-91 29 -137 77l-146 -143l-56 55l144 145q-102 117 -102 282q0 157 102 283l-144 141l56 57l146 -142q118 102 285 102q162 0 280 -102l143 142l58 -57l-144 -141q103 -132 103 -281q0 -154 -103 -284z
M874 679q0 97 -50 182.5t-135 132t-177 46.5q-155 0 -258.5 -104t-103.5 -259q0 -153 104 -256t257 -103t258 104t105 257z" />
    <glyph glyph-name="yen" unicode="&#xa5;" horiz-adv-x="1024" 
d="M1023 352h-426v-108q0 -113 11 -143q22 -60 119 -60h41v-41h-515v41h32q118 0 137 83q4 18 4 120v108h-424v73h424v144l-15 36h-409v73h377l-213 496q-31 73 -59 102q-39 41 -105 42v38h442v-38q-121 -8 -121 -62q0 -15 18 -59l214 -519l213 504q21 50 21 75q0 21 -21 41
q-13 13 -64 17q-7 1 -27 3v38h346v-38q-59 0 -87 -23q-44 -36 -86 -132l-214 -485h387v-73h-419l-7 -16v-164h426v-73z" />
    <glyph glyph-name="brokenbar" unicode="&#xa6;" horiz-adv-x="410" 
d="M244 680h-83v742h83v-742zM244 -442h-83v742h83v-742z" />
    <glyph glyph-name="section" unicode="&#xa7;" horiz-adv-x="907" 
d="M809 592q2 -76 -133 -219q102 -46 102 -168q0 -112 -117 -181q-100 -59 -219 -59q-161 0 -313 78l117 156q191 -121 336 -121q33 0 60.5 23t27.5 55q0 43 -125 102l-305 145q-142 68 -142 166q0 110 135 226q-108 60 -108 166q0 114 102 183q89 60 209 60q168 0 322 -92
l-111 -141q-169 131 -313 131q-37 0 -66 -23q-32 -25 -32 -61q0 -40 54 -73q19 -11 113 -56l230 -109q173 -82 176 -188zM674 498q1 76 -109 129l-280 135q-64 -64 -64 -107q0 -59 117 -114l285 -135q50 44 51 92z" />
    <glyph glyph-name="dieresis" unicode="&#xa8;" horiz-adv-x="682" 
d="M626 1228q0 -45 -31.5 -76.5t-76.5 -31.5t-77 31.5t-32 76.5t32 77t77 32t76.5 -32t31.5 -77zM274 1228q0 -45 -31.5 -76.5t-76.5 -31.5t-77 31.5t-32 76.5t31.5 77t76.5 32q46 0 77.5 -31.5t31.5 -77.5z" />
    <glyph glyph-name="copyright" unicode="&#xa9;" horiz-adv-x="1556" 
d="M1488 678q0 -192 -95 -356q-96 -167 -262 -259q-170 -94 -353 -94q-194 0 -357 94q-166 96 -259 263.5t-93 351.5q0 193 97 360.5t265 258t347 90.5q190 0 355 -94q169 -95 260 -259q95 -171 95 -356zM1426 678q0 177 -88 329t-242 235.5t-318 83.5q-171 0 -324 -87.5
t-236 -235.5q-87 -156 -87 -325q0 -176 87 -327t239.5 -236t320.5 -85q176 0 327.5 87t236 239.5t84.5 321.5zM1166 431q-139 -203 -383 -203q-198 0 -329 122q-134 125 -134 322q0 209 146 338q141 125 352 125q70 0 185 -38q24 -8 37 -8q31 0 49 45h40l20 -280h-39
q-71 236 -303 236q-161 0 -246 -118q-75 -104 -75 -271q0 -182 72 -288q85 -125 259 -125q195 0 312 162z" />
    <glyph glyph-name="ordfeminine" unicode="&#xaa;" horiz-adv-x="565" 
d="M563 857q-102 -74 -149 -74q-57 0 -73 95q-127 -91 -215 -91q-53 0 -92 35.5t-39 88.5q0 91 129 170q51 31 217 99q0 83 -14 118q-23 58 -92 58q-67 0 -86 -45q-2 -18 -13 -85q-7 -45 -53 -45q-56 0 -56 60q0 78 84 115q63 28 150 28q166 0 205 -95q13 -32 13 -109v-218
q0 -53 2 -61q6 -26 24 -26q14 0 58 30v-48zM341 916v226q-207 -69 -207 -184q0 -36 26.5 -61t62.5 -25q44 0 118 44z" />
    <glyph glyph-name="guillemotleft" unicode="&#xab;" horiz-adv-x="1024" 
d="M960 -8h-58l-394 472l394 470h58l-243 -470zM508 -8h-57l-387 472l387 470h57l-244 -470z" />
    <glyph glyph-name="logicalnot" unicode="&#xac;" horiz-adv-x="1155" 
d="M1116 472h-79v325h-1001v81h1080v-406z" />
    <glyph glyph-name="registered" unicode="&#xae;" horiz-adv-x="1556" 
d="M1488 678q0 -192 -95 -356q-96 -167 -262 -259q-170 -94 -353 -94q-194 0 -357 94q-166 96 -259 263.5t-93 351.5q0 193 97 360.5t265 258t347 90.5q190 0 355 -94q169 -95 260 -259q95 -171 95 -356zM1426 678q0 177 -88 329t-242 235.5t-318 83.5q-171 0 -324 -87.5
t-236 -235.5q-87 -156 -87 -325q0 -176 87 -327t239.5 -236t320.5 -85q176 0 327.5 87t236 239.5t84.5 321.5zM1177 249h-184l-294 405h-76v-309q11 -63 118 -63v-33h-367v33q78 0 97 45q7 17 7 93v523q0 76 -3 87q-13 48 -89 48v36h386q120 0 201 -51q96 -60 96 -173
q0 -164 -222 -222l209 -298q37 -53 68 -73q18 -12 53 -15v-33zM908 879q0 86 -57 138.5t-144 52.5q-38 0 -84 -16v-357q195 0 256 88q29 42 29 94z" />
    <glyph glyph-name="degree" unicode="&#xb0;" horiz-adv-x="797" 
d="M711 1038q0 -133 -90.5 -222t-223.5 -89q-132 0 -222.5 89.5t-90.5 221.5q0 133 90 223.5t223 90.5t223.5 -90.5t90.5 -223.5zM633 1038q0 101 -65.5 166.5t-166.5 65.5q-100 0 -165.5 -66t-65.5 -166t65.5 -165.5t165.5 -65.5t166 65.5t66 165.5z" />
    <glyph glyph-name="plusminus" unicode="&#xb1;" horiz-adv-x="1251" 
d="M1120 377h-415v-307h-123v307h-416v123h416v434h123v-434h415v-123zM1120 -123h-954v123h954v-123z" />
    <glyph glyph-name="twosuperior" unicode="&#xb2;" horiz-adv-x="567" 
d="M516 838l-49 -121h-395q31 155 123 266q10 12 97 114q56 66 56 117q0 108 -143 111q-53 1 -92 -10q32 78 53 117q43 12 94 12q90 0 149 -44q66 -49 66 -136q0 -93 -74 -166l-131 -129q-57 -57 -67 -131h313z" />
    <glyph glyph-name="threesuperior" unicode="&#xb3;" horiz-adv-x="567" 
d="M502 987q0 -127 -84 -214t-211 -87q-77 0 -141 41l75 115q46 -39 115 -39q56 0 98 31q47 34 47 88q0 53 -54 86q-45 28 -103 30q-28 1 -66 -10l17 90q118 58 118 144q0 64 -116 67q-32 1 -78 -4q8 23 55 113q28 6 62 6q81 0 138 -36q68 -42 68 -118q0 -107 -108 -160
q64 0 114 -39q54 -42 54 -104z" />
    <glyph glyph-name="acute" unicode="&#xb4;" horiz-adv-x="682" 
d="M565 1390l-295 -345h-34l105 345h224z" />
    <glyph glyph-name="paragraph" unicode="&#xb6;" horiz-adv-x="928" 
d="M932 1301h-133v-1743h-72v1743h-187v-1743h-73v1043q-158 7 -243 35q-237 78 -237 345q0 109 43 180q119 195 407 195h495v-55z" />
    <glyph glyph-name="cedilla" unicode="&#xb8;" horiz-adv-x="682" 
d="M496 -209q0 -83 -68 -134q-61 -47 -147 -47q-37 0 -94 7v43q28 -4 48 -4q48 0 84.5 31.5t36.5 78.5q0 32 -24 53t-56 21q-10 0 -26 -2l111 178h60l-50 -79q125 -32 125 -146z" />
    <glyph glyph-name="onesuperior" unicode="&#xb9;" horiz-adv-x="567" 
d="M518 838l-72 -121h-364l65 121h99v428q-69 55 -135 80q111 76 247 106v-614h160z" />
    <glyph glyph-name="ordmasculine" unicode="&#xba;" horiz-adv-x="635" 
d="M611 1091q0 -128 -86 -216t-214 -88q-124 0 -203 82t-79 206q0 138 79.5 223.5t215.5 85.5q126 0 206.5 -83t80.5 -210zM473 1023q0 157 -71 256q-44 62 -106 62q-126 0 -126 -188q0 -158 69 -258q39 -57 102 -57q132 0 132 185z" />
    <glyph glyph-name="guillemotright" unicode="&#xbb;" horiz-adv-x="1024" 
d="M960 462l-387 -470h-57l244 470l-244 472h57zM516 462l-394 -470h-58l243 470l-243 472h58z" />
    <glyph glyph-name="onequarter" unicode="&#xbc;" horiz-adv-x="1360" 
d="M1348 305l-72 -123h-86v-139l-113 -53v192h-264q0 7 -1 20.5t-1 20.5q0 194 111 331q107 133 297 185q-27 -56 -27 -110v-324h156zM1145 1192l-783 -1221h-100l780 1221h103zM518 592l-72 -121h-364l65 121h99v428q-69 55 -135 80q111 76 247 106v-614h160zM1077 305v273
q-76 -33 -124 -110.5t-48 -162.5h172z" />
    <glyph glyph-name="onehalf" unicode="&#xbd;" horiz-adv-x="1360" 
d="M1303 121l-50 -121h-395q31 159 123 266l98 114q56 65 56 118q0 108 -144 110q-56 1 -92 -10q33 78 53 117q43 12 95 12q90 0 149 -44q66 -49 66 -136q0 -92 -74 -165q-33 -33 -131 -130q-57 -57 -68 -131h314zM1145 1192l-783 -1221h-100l780 1221h103zM518 592
l-72 -121h-364l65 121h99v428q-69 55 -135 80q111 76 247 106v-614h160z" />
    <glyph glyph-name="threequarters" unicode="&#xbe;" horiz-adv-x="1360" 
d="M1348 305l-72 -123h-86v-139l-113 -53v192h-264q0 7 -1 20.5t-1 20.5q0 194 111 331q107 133 297 185q-27 -56 -27 -110v-324h156zM1145 1192l-783 -1221h-100l780 1221h103zM502 741q0 -127 -84 -214t-211 -87q-77 0 -141 41l75 115q46 -39 115 -39q56 0 98 31
q47 34 47 88q0 53 -54 86q-45 28 -103 31q-24 1 -66 -11l17 90q118 58 118 144q0 64 -116 67q-32 1 -78 -4q8 23 55 113q28 6 62 6q81 0 138 -36q68 -42 68 -118q0 -107 -108 -159q65 0 114 -39q54 -42 54 -105zM1077 305v273q-76 -33 -124 -110.5t-48 -162.5h172z" />
    <glyph glyph-name="questiondown" unicode="&#xbf;" horiz-adv-x="737" 
d="M479 820l-110 -123l-117 119l110 127zM561 40l-115 -168q-12 -2 -34 -2q-109 0 -177 53q-75 58 -75 164q0 52 70.5 162t70.5 137q0 50 -43 80l115 125q61 -69 61 -123q0 -73 -59 -152q-43 -58 -43 -118q0 -72 52 -118q49 -45 122 -46q31 -1 55 6z" />
    <glyph glyph-name="multiply" unicode="&#xd7;" horiz-adv-x="1251" 
d="M1073 80l-67 -74l-363 373l-362 -373l-74 74l362 373l-362 366l74 74l362 -367l363 373l67 -74l-356 -372z" />
    <glyph glyph-name="divide" unicode="&#xf7;" horiz-adv-x="1251" 
d="M748 762q0 -46 -32.5 -77.5t-78.5 -31.5t-78.5 31.5t-32.5 77.5t32.5 78t78.5 32t78.5 -32t32.5 -78zM1120 377h-954v123h954v-123zM748 113q0 -46 -32.5 -77.5t-78.5 -31.5t-78.5 31.5t-32.5 77.5t32.5 78t78.5 32t78.5 -32t32.5 -78z" />
    <glyph glyph-name="florin" unicode="&#x192;" horiz-adv-x="1024" 
d="M999 1275q0 -77 -68 -77q-24 0 -43.5 16.5t-19.5 39.5q0 11 11 33.5t11 27.5q0 26 -35 26q-80 0 -104 -108q-28 -126 -64 -358h178l-17 -66h-174q-53 -274 -172 -708q-93 -339 -205 -449q-85 -83 -173 -83q-51 0 -85 27q-37 29 -37 78q0 35 21.5 62t55.5 27
q24 0 44.5 -16.5t20.5 -39.5q0 -14 -12 -36l-12 -21q0 -21 25 -21q50 0 96 74q28 45 60 177q13 54 86 415q6 32 123 514h-177l15 66l90 7q61 11 93 63q13 21 44 111q53 153 95 216q77 115 192 115q55 0 93 -28q44 -31 44 -84z" />
    <glyph glyph-name="macron" unicode="&#xaf;" horiz-adv-x="1024" 
d="M1043 1421h-1059v84h1059v-84z" />
    <glyph glyph-name="macron" unicode="&#x2c9;" horiz-adv-x="1024" 
d="M1043 1421h-1059v84h1059v-84z" />
    <glyph glyph-name="endash" unicode="&#x2013;" horiz-adv-x="1024" 
d="M1042 453h-1059v73h1059v-73z" />
    <glyph glyph-name="quoteleft" unicode="&#x2018;" horiz-adv-x="430" 
d="M399 1095q-37 -86 -109 -187q-79 -110 -147 -156q-62 26 -92 84q113 158 168 396q116 -53 180 -137z" />
    <glyph glyph-name="quoteright" unicode="&#x2019;" horiz-adv-x="430" 
d="M399 1095q-37 -86 -109 -187q-79 -110 -147 -156q-62 26 -92 84q113 158 168 396q116 -53 180 -137z" />
    <glyph glyph-name="quotesinglbase" unicode="&#x201a;" horiz-adv-x="410" 
d="M308 118q-37 -87 -104 -182q-75 -108 -140 -152q-69 42 -84 78q92 128 161 368q114 -55 167 -112z" />
    <glyph glyph-name="quotedblleft" unicode="&#x201c;" horiz-adv-x="741" 
d="M705 1095q-41 -97 -124 -205q-77 -100 -133 -138q-62 28 -91 84q113 158 168 396q116 -53 180 -137zM399 1095q-37 -86 -109 -187q-79 -110 -147 -156q-62 26 -92 84q113 158 168 396q116 -53 180 -137z" />
    <glyph glyph-name="quotedblright" unicode="&#x201d;" horiz-adv-x="741" 
d="M705 1095q-41 -97 -124 -205q-77 -100 -133 -138q-62 28 -91 84q113 158 168 396q116 -53 180 -137zM399 1095q-37 -86 -109 -187q-79 -110 -147 -156q-62 26 -92 84q113 158 168 396q116 -53 180 -137z" />
    <glyph glyph-name="quotedblbase" unicode="&#x201e;" horiz-adv-x="741" 
d="M705 1095q-41 -97 -124 -205q-77 -100 -133 -138q-62 28 -91 84q113 158 168 396q116 -53 180 -137zM399 1095q-37 -86 -109 -187q-79 -110 -147 -156q-62 26 -92 84q113 158 168 396q116 -53 180 -137z" />
    <glyph glyph-name="bullet" unicode="&#x2022;" horiz-adv-x="717" 
d="M614 677q0 -109 -71 -180t-180 -71t-180 71t-71 180t71 180t180 71t180 -71t71 -180z" />
    <glyph glyph-name="ellipsis" unicode="&#x2026;" horiz-adv-x="2048" 
d="M1818 83q0 -46 -32.5 -78.5t-78.5 -32.5t-78.5 32.5t-32.5 78.5q0 47 32 79t79 32q46 0 78.5 -32.5t32.5 -78.5zM1135 83q0 -46 -32.5 -78.5t-78.5 -32.5t-78.5 32.5t-32.5 78.5q0 47 32 79t79 32q46 0 78.5 -32.5t32.5 -78.5zM452 83q0 -46 -32.5 -78.5t-78.5 -32.5
t-78.5 32.5t-32.5 78.5q0 47 32 79t79 32t79 -32t32 -79z" />
    <glyph glyph-name="perthousand" unicode="&#x2030;" horiz-adv-x="2048" 
d="M1981 320q0 -239 -143 -330q-71 -45 -145 -45q-167 0 -248 172q-39 83 -39 184q0 246 149 331q72 41 136 41q79 0 150 -49q68 -46 102 -120q38 -82 38 -184zM643 1021q0 -144 -69 -245q-80 -117 -217 -117q-171 0 -252 172q-40 85 -40 191q0 229 146 322q67 43 142 43
q173 0 252 -176q38 -85 38 -190zM1220 1387l-972 -1442h-89l972 1442h89zM1316 312q0 -227 -148 -322q-70 -45 -142 -45q-135 0 -216 118q-72 104 -72 245q0 230 151 322q70 43 140 43q168 0 248 -175q39 -85 39 -186zM1821 329q0 291 -130 291q-125 0 -125 -316
q0 -304 129 -304q73 0 107 114q19 64 19 215zM483 1030q0 304 -134 304q-123 0 -123 -317q0 -308 129 -308q128 0 128 321zM1155 303q0 317 -130 317q-74 0 -108 -110q-19 -62 -19 -210q0 -300 126 -300q131 0 131 303z" />
    <glyph glyph-name="guilsinglleft" unicode="&#x2039;" horiz-adv-x="682" 
d="M563 -8h-57l-387 472l387 470h57l-244 -470z" />
    <glyph glyph-name="guilsinglright" unicode="&#x203a;" horiz-adv-x="682" 
d="M567 462l-394 -470h-58l243 470l-243 472h58z" />
    <glyph glyph-name="trademark" unicode="&#x2122;" horiz-adv-x="2007" 
d="M1973 549h-398v36q44 1 63 6q34 9 47 38q9 20 9 86v492l-307 -658h-32l-308 649v-482q0 -99 36 -120q19 -11 57 -11h36v-36h-306v36q86 0 104 41q9 21 9 90v466q0 108 -37 127q-19 10 -76 10v37h286l273 -572l265 572h279v-37q-41 -1 -60 -6q-30 -8 -42 -37
q-9 -22 -9 -92v-468q0 -80 16 -101q20 -26 95 -30v-36zM801 1155h-34q-20 141 -194 141h-75v-579q0 -76 16 -100q20 -29 90 -32v-36h-374v36q68 6 86 34q14 22 14 97v580h-76q-87 0 -128 -27q-46 -31 -62 -114h-34l21 201h728z" />
    <glyph glyph-name="periodcentered" unicode="&#xb7;" horiz-adv-x="682" 
d="M705 703q0 -43 -31 -74t-74 -31t-74 31t-31 74q0 44 30.5 74.5t74.5 30.5t74.5 -30.5t30.5 -74.5z" />
    <glyph glyph-name="periodcentered" unicode="&#x2219;" horiz-adv-x="682" 
d="M705 703q0 -43 -31 -74t-74 -31t-74 31t-31 74q0 44 30.5 74.5t74.5 30.5t74.5 -30.5t30.5 -74.5z" />
    <glyph glyph-name="glyph143" horiz-adv-x="453" 
 />
    <glyph glyph-name="glyph144" horiz-adv-x="453" 
 />
    <glyph glyph-name="glyph143" horiz-adv-x="453" 
 />
    <glyph glyph-name="glyph144" horiz-adv-x="453" 
 />
    <glyph glyph-name="glyph142" horiz-adv-x="453" 
 />
    <glyph glyph-name="ch270" horiz-adv-x="453" 
 />
    <glyph glyph-name="hyphenminus" unicode="&#x2010;" horiz-adv-x="680" 
d="M592 656l-47 -144h-457l51 158z" />
    <glyph glyph-name="delete" unicode="&#x2421;" horiz-adv-x="1229" 
d="M1188 59h-293v469h62v-414h231v-55zM835 59h-350v469h339v-56h-277v-143h260v-55h-260v-160h288v-55zM429 296q0 -194 -143 -229q-33 -8 -76 -8h-169v469h162q53 0 83 -7q143 -33 143 -225zM365 297q0 134 -83 166q-23 9 -80 9h-99v-358h100q82 0 115 33q47 47 47 150z
" />
    <glyph glyph-name="nonbreakingspace" unicode="&#xa0;" horiz-adv-x="453" 
 />
    <glyph glyph-name="sfthyphen" unicode="&#xad;" horiz-adv-x="1155" 
d="M1116 797h-1080v81h1080v-81z" />
    <glyph glyph-name="sfthyphen" unicode="&#x2212;" horiz-adv-x="1155" 
d="M1116 797h-1080v81h1080v-81z" />
    <glyph glyph-name="micro" unicode="&#xb5;" horiz-adv-x="1180" 
d="M1094 204q-17 -232 -198 -232q-141 0 -158 190q-162 -190 -314 -190q-54 0 -92 21q-27 15 -63 64q-1 -31 -1 -46q0 -79 34 -239q13 -61 13 -104t-25 -75q-27 -35 -69 -35q-87 0 -87 109q0 47 29 165q19 78 22 104q12 106 12 179v47l-1 28v726h164v-533q0 -144 18 -198
q30 -90 124 -90q118 0 236 134v687h165v-654q0 -102 8 -131q14 -51 60 -51q62 0 81 124h42z" />
    <glyph glyph-name="micro" unicode="&#x3bc;" horiz-adv-x="1180" 
d="M1094 204q-17 -232 -198 -232q-141 0 -158 190q-162 -190 -314 -190q-54 0 -92 21q-27 15 -63 64q-1 -31 -1 -46q0 -79 34 -239q13 -61 13 -104t-25 -75q-27 -35 -69 -35q-87 0 -87 109q0 47 29 165q19 78 22 104q12 106 12 179v47l-1 28v726h164v-533q0 -144 18 -198
q30 -90 124 -90q118 0 236 134v687h165v-654q0 -102 8 -131q14 -51 60 -51q62 0 81 124h42z" />
    <glyph glyph-name="sheva" unicode="&#x5b0;" horiz-adv-x="147" 
d="M147 -279h-147v146h147v-146zM147 -510h-147v145h147v-145z" />
    <glyph glyph-name="hatafsegol" unicode="&#x5b1;" horiz-adv-x="651" 
d="M651 -279h-147v146h147v-146zM651 -510h-147v145h147v-145zM399 -279h-147v146h147v-146zM147 -279h-147v146h147v-146zM274 -510h-147v145h147v-145z" />
    <glyph glyph-name="hatafpatah" unicode="&#x5b2;" horiz-adv-x="635" 
d="M635 -279h-148v146h148v-146zM635 -510h-148v145h148v-145zM399 -256h-399v123h399v-123z" />
    <glyph glyph-name="hatafqamats" unicode="&#x5b3;" horiz-adv-x="635" 
d="M635 -279h-148v146h148v-146zM635 -510h-148v145h148v-145zM399 -256h-145l8 -207h-121l6 207h-147v123h399v-123z" />
    <glyph glyph-name="hiriq" unicode="&#x5b4;" horiz-adv-x="147" 
d="M147 -279h-147v146h147v-146z" />
    <glyph glyph-name="tsere" unicode="&#x5b5;" horiz-adv-x="399" 
d="M399 -279h-147v146h147v-146zM147 -279h-147v146h147v-146z" />
    <glyph glyph-name="segol" unicode="&#x5b6;" horiz-adv-x="399" 
d="M399 -279h-147v146h147v-146zM147 -279h-147v146h147v-146zM274 -510h-147v145h147v-145z" />
    <glyph glyph-name="patah" unicode="&#x5b7;" horiz-adv-x="399" 
d="M399 -256h-399v123h399v-123z" />
    <glyph glyph-name="qamats" unicode="&#x5b8;" horiz-adv-x="399" 
d="M399 -256h-145l8 -207h-121l6 207h-147v123h399v-123z" />
    <glyph glyph-name="holam" unicode="&#x5b9;" horiz-adv-x="147" 
d="M147 1135h-147v145h147v-145z" />
    <glyph glyph-name="qibuts" unicode="&#x5bb;" horiz-adv-x="651" 
d="M651 -510h-147v145h147v-145zM399 -395h-147v145h147v-145zM147 -279h-147v146h147v-146z" />
    <glyph glyph-name="dagesh" unicode="&#x5bc;" horiz-adv-x="147" 
d="M147 442h-147v146h147v-146z" />
    <glyph glyph-name="meteg" unicode="&#x5bd;" horiz-adv-x="92" 
d="M92 -393h-92v260h92v-260z" />
    <glyph glyph-name="maqaf" unicode="&#x5be;" horiz-adv-x="397" 
d="M397 1221h-397v194h397v-194z" />
    <glyph glyph-name="rafe" unicode="&#x5bf;" horiz-adv-x="680" 
d="M627 989l-82 -158h-482l76 158h488z" />
    <glyph glyph-name="paseq" unicode="&#x5c0;" horiz-adv-x="573" 
d="M342 0h-111v1296h111v-1296z" />
    <glyph glyph-name="shindot" unicode="&#x5c1;" horiz-adv-x="1247" 
d="M999 1135h-147v145h147v-145z" />
    <glyph glyph-name="sindot" unicode="&#x5c2;" horiz-adv-x="1247" 
d="M270 1135h-147v145h147v-145z" />
    <glyph glyph-name="sofpasuq" unicode="&#x5c3;" horiz-adv-x="793" 
d="M469 657l-152 -149l-145 147l143 152zM469 121l-147 -152l-148 150l141 151z" />
    <glyph glyph-name="alef" unicode="&#x5d0;" horiz-adv-x="1146" 
d="M1097 12q0 -12 -25 -12h-256q-133 211 -350 485q-16 21 -33 21q-33 0 -61 -76q-29 -84 -29 -207v-223h-258v125q0 182 64 317q69 144 196 201q-135 174 -299 356q-6 9 -6 17q0 12 20 12h267q116 -133 344 -424q16 -20 35 -20q79 0 79 221v223h261v-125q0 -340 -254 -457
q188 -256 297 -413q8 -13 8 -21z" />
    <glyph glyph-name="bet" unicode="&#x5d1;" horiz-adv-x="991" 
d="M919 0h-848q-6 72 0 174h311q115 0 172 109q50 92 50 237q0 334 -222 334h-288q-6 90 0 174h397q199 0 297 -137q86 -117 86 -320q0 -114 -41 -225q-47 -127 -127 -172h213q12 -86 0 -174z" />
    <glyph glyph-name="gimel" unicode="&#x5d2;" horiz-adv-x="839" 
d="M767 0h-256q-22 68 -40 297q-140 -315 -328 -315q-21 0 -78 18q10 141 27 184q12 -4 43 -4q86 0 203.5 116t117.5 216v209q0 131 -119 131h-176q-6 86 0 176h258q148 0 215 -55q80 -66 80 -221v-326q0 -211 53 -426z" />
    <glyph glyph-name="dalet" unicode="&#x5d3;" horiz-adv-x="1032" 
d="M930 1028q6 -86 -3 -174h-145v-854h-258v854h-461q-10 66 -2 174h869z" />
    <glyph glyph-name="he" unicode="&#x5d4;" horiz-adv-x="1079" 
d="M976 0h-260v639q0 213 -203 213h-412q-18 88 0 176h498q195 0 286 -90t91 -289v-649zM364 0h-261v541q33 22 114 43.5t147 23.5v-608z" />
    <glyph glyph-name="vav" unicode="&#x5d5;" horiz-adv-x="466" 
d="M364 0h-262v1028h262v-1028z" />
    <glyph glyph-name="zayin" unicode="&#x5d6;" horiz-adv-x="737" 
d="M654 1028q-4 -82 -61 -172q-182 -55 -182 -283q0 -36 6 -75l72 -498h-265l-61 446q-4 31 -4 62q0 231 190 346h-262q-6 41 -6 94q0 35 4 80h569z" />
    <glyph glyph-name="het" unicode="&#x5d7;" horiz-adv-x="1124" 
d="M1022 0h-261v659q0 193 -161 193h-238v-852h-260v958q0 70 86 70h457q196 0 286.5 -93t90.5 -286v-649z" />
    <glyph glyph-name="tet" unicode="&#x5d8;" horiz-adv-x="1163" 
d="M1071 494q0 -256 -138 -394q-129 -129 -358 -129q-217 0 -342 121q-131 129 -131 367v569h262v-565q0 -313 211 -313q227 0 227 354v127q0 203 -133 203q-47 0 -86 -33q-47 63 -63 153q86 74 252 74q116 0 198 -84q101 -100 101 -295v-155z" />
    <glyph glyph-name="yod" unicode="&#x5d9;" horiz-adv-x="466" 
d="M364 537q-86 -78 -262 -105v596h262v-491z" />
    <glyph glyph-name="kaffinal" unicode="&#x5da;" horiz-adv-x="876" 
d="M774 -297h-260v956q0 193 -182 193h-271q-18 88 0 176h357q356 0 356 -338v-987z" />
    <glyph glyph-name="kaf" unicode="&#x5db;" horiz-adv-x="940" 
d="M861 516q0 -221 -125 -368.5t-331 -147.5h-316q-4 49 -4 90q0 31 4 84h258q115 0 183 105q61 96 61 237q0 143 -61 234q-66 102 -187 102h-256q-6 35 -6 92q0 4 6 84h311q228 0 349 -137q114 -131 114 -375z" />
    <glyph glyph-name="lamed" unicode="&#x5dc;" horiz-adv-x="927" 
d="M831 655q0 -286 -179 -483q-174 -188 -417 -192q-11 45 0 174q145 14 238 152t93 329q0 110 -37 160q-43 57 -155 57h-250q-84 0 -84 102v387h260v-274q0 -39 29 -39h153q176 0 258 -82q91 -90 91 -291z" />
    <glyph glyph-name="memfinal" unicode="&#x5dd;" horiz-adv-x="1165" 
d="M1063 92q0 -49 -13 -67q-16 -25 -69 -25h-818q-61 0 -61 72v866q0 90 86 90h457q192 0 305 -110.5t113 -309.5v-516zM802 197v401q0 119 -70.5 186.5t-172.5 67.5h-178q-19 0 -19 -18v-637q0 -23 21 -23h399q20 0 20 23z" />
    <glyph glyph-name="mem" unicode="&#x5de;" horiz-adv-x="1218" 
d="M1126 522q0 -231 -107 -377q-119 -161 -338 -161q-147 0 -196 18q2 68 26 170q29 -12 96 -12q250 0 250 358q0 338 -221 338q-106 0 -163.5 -103.5t-88.5 -344.5l-49 -408h-258l61 473q17 127 68 232q57 114 131 149h-242q-6 90 0 174h605q213 0 325 -149
q101 -136 101 -357z" />
    <glyph glyph-name="nunfinal" unicode="&#x5df;" horiz-adv-x="466" 
d="M364 -299h-262v1327h262v-1327z" />
    <glyph glyph-name="nun" unicode="&#x5e0;" horiz-adv-x="743" 
d="M640 123q0 -123 -113 -123h-444q-2 27 -2 82q0 70 4 92h275q20 0 20 21v505q0 152 -117 152h-125q-4 51 -4 96q0 27 4 80h248q254 0 254 -276v-629z" />
    <glyph glyph-name="samekh" unicode="&#x5e1;" horiz-adv-x="1212" 
d="M1119 516q0 -260 -147 -410q-137 -139 -359 -139q-227 0 -368.5 132t-141.5 368q0 117 53.5 223.5t137.5 161.5h-201q-10 82 -2 176h600q217 0 332 -164q96 -137 96 -348zM853 508q0 147 -51 237q-64 111 -195 111q-239 0 -239 -348q0 -150 55 -246q63 -115 190 -115
q240 0 240 361z" />
    <glyph glyph-name="ayin" unicode="&#x5e2;" horiz-adv-x="1107" 
d="M1005 469q0 -217 -125 -343t-328 -126h-477q-10 113 2 174h279q-86 164 -174 438q-76 242 -99 381q-6 35 19 35h239q103 -498 240 -842q164 27 164 226v616h260v-559z" />
    <glyph glyph-name="pefinal" unicode="&#x5e3;" horiz-adv-x="1101" 
d="M998 -297h-258v940q0 90 -51 152q-57 63 -145 63q-86 0 -140.5 -64.5t-54.5 -150.5q0 -94 86 -162q-30 -35 -101 -79t-108 -50q-129 101 -129 242q0 176 142 258h-148q-8 53 0 176h545q158 0 258 -96q104 -105 104 -283v-946z" />
    <glyph glyph-name="pe" unicode="&#x5e4;" horiz-adv-x="1159" 
d="M1067 516q0 -221 -123 -364q-127 -152 -334 -152h-500q-4 49 -4 90q0 31 4 84h443q114 0 182 105q61 96 61 237q0 143 -61 238q-66 104 -187 104q-86 0 -133 -56.5t-47 -150.5q0 -90 86 -155q-41 -37 -112.5 -78t-106.5 -51q-125 82 -125 227q0 158 137 258h-139
q-6 35 -6 92q0 4 6 84h496q225 0 348 -145q115 -135 115 -367z" />
    <glyph glyph-name="tsadifinal" unicode="&#x5e5;" horiz-adv-x="987" 
d="M884 883q0 -176 -116 -297q-88 -92 -220 -137q119 -261 330 -744h-258q-139 320 -280 639q-154 344 -310 655q-14 29 15 29h239l191 -407q20 -43 51 -43q39 0 68 69q32 80 32 209v172h258v-145z" />
    <glyph glyph-name="tsadi" unicode="&#x5e6;" horiz-adv-x="1067" 
d="M965 879q0 -291 -238 -418q117 -105 147 -142q64 -75 64 -151q0 -21 -4 -41q-8 -45 -53.5 -86t-96.5 -41h-700q-4 45 -4 88q0 57 4 86h543q36 0 36 27q0 20 -30 47l-254 229q-293 264 -328 522q-4 29 14 29h261q8 -88 73 -205q74 -137 189 -233q18 -17 34 -17q41 0 64 84
q20 74 20 185v186h259v-149z" />
    <glyph glyph-name="qof" unicode="&#x5e7;" horiz-adv-x="1161" 
d="M1068 600q0 -272 -174 -446q-158 -156 -381 -170q-10 45 0 174q131 24 207 125q84 114 84 307q0 110 -49 182q-53 80 -156 80h-498q-20 78 0 176h601q366 0 366 -428zM376 -299h-260v897q112 57 260 66v-963z" />
    <glyph glyph-name="resh" unicode="&#x5e8;" horiz-adv-x="897" 
d="M795 0h-260v639q0 213 -183 213h-291q-18 88 0 176h377q162 0 254 -84q103 -92 103 -274v-670z" />
    <glyph glyph-name="shin" unicode="&#x5e9;" horiz-adv-x="1388" 
d="M1286 440q0 -176 -107 -303q-116 -137 -311 -137h-346q-195 0 -311 135q-109 123 -109 305v588h256v-504q0 -51 53 -51q58 0 101 53q53 64 53 179v323h256v-299q0 -176 -125 -293q-117 -108 -275 -108q-26 0 -51 2q15 -62 66 -105q59 -51 147 -51h203q244 0 244 297v557
h256v-588z" />
    <glyph glyph-name="tav" unicode="&#x5ea;" horiz-adv-x="1218" 
d="M1116 0h-260v639q0 119 -47 166t-156 47h-198v-555q0 -150 -91 -234q-82 -75 -202 -75q-105 0 -156 20q0 96 33 172q20 -16 57 -16q35 0 66.5 32.5t31.5 90.5v651q0 90 88 90h437q397 0 397 -379v-649z" />
    <glyph glyph-name="geresh" unicode="&#x5f3;" horiz-adv-x="453" 
d="M344 870q0 -118 -75 -247l-130 -224l-49 -20l60 174q34 99 34 190q0 84 -49 146l139 166q70 -91 70 -185z" />
    <glyph glyph-name="gershayim" unicode="&#x5f4;" horiz-adv-x="907" 
d="M793 870q0 -118 -75 -247l-130 -224l-49 -20l60 174q34 99 34 190q0 84 -49 146l139 166q70 -91 70 -185zM365 870q0 -118 -75 -247l-130 -224l-49 -20l60 174q34 99 34 190q0 84 -49 146l139 166q70 -91 70 -185z" />
    <glyph glyph-name="lefttoright" unicode="&#x200e;" horiz-adv-x="831" 
d="M768 918l-336 -312v221h-143v-827h-176v1004h319v225z" />
    <glyph glyph-name="righttoleft" unicode="&#x200f;" horiz-adv-x="831" 
d="M719 0h-176v827h-144v-221l-336 312l336 311v-225h320v-1004z" />
    <glyph glyph-name="quotedash" unicode="&#x2015;" horiz-adv-x="2048" 
d="M2067 453h-2085v74h2085v-74z" />
    <glyph glyph-name="newsheqel" unicode="&#x20aa;" horiz-adv-x="1491" 
d="M1389 195q0 -107 -43.5 -151t-149.5 -44h-719v610h137v-473h547q90 0 90 76v739h138v-757zM1014 338h-137v401q0 76 -91 76h-546v-815h-138v952h719q106 0 149.5 -44t43.5 -150v-420z" />
  </font>
</defs>
</svg>
